<svg width="32" height="32" viewBox="0 0 32 32" fill="none" xmlns="http://www.w3.org/2000/svg">
<path d="M12 21.5601L7.37337 16.9334C7.12406 16.6841 6.78593 16.5441 6.43336 16.5441C6.0808 16.5441 5.74267 16.6841 5.49336 16.9334C5.24406 17.1827 5.104 17.5209 5.104 17.8734C5.104 18.048 5.13839 18.2209 5.2052 18.3822C5.272 18.5434 5.36992 18.69 5.49336 18.8134L11.0667 24.3868C11.5867 24.9068 12.4267 24.9068 12.9467 24.3868L27.0534 10.2801C27.3027 10.0308 27.4427 9.69267 27.4427 9.3401C27.4427 8.98753 27.3027 8.64941 27.0534 8.4001C26.8041 8.1508 26.4659 8.01074 26.1134 8.01074C25.7608 8.01074 25.4227 8.1508 25.1734 8.4001L12 21.5601Z" fill="black"/>
</svg>
