<svg width="32" height="32" viewBox="0 0 32 32" fill="none" xmlns="http://www.w3.org/2000/svg">
<path d="M28.3332 15.9999H11.8598M6.04517 15.9999H3.6665M6.04517 15.9999C6.04517 15.229 6.35141 14.4897 6.89651 13.9446C7.44162 13.3995 8.18094 13.0933 8.95184 13.0933C9.72273 13.0933 10.4621 13.3995 11.0072 13.9446C11.5523 14.4897 11.8585 15.229 11.8585 15.9999C11.8585 16.7708 11.5523 17.5102 11.0072 18.0553C10.4621 18.6004 9.72273 18.9066 8.95184 18.9066C8.18094 18.9066 7.44162 18.6004 6.89651 18.0553C6.35141 17.5102 6.04517 16.7708 6.04517 15.9999ZM28.3332 24.8093H20.6692M20.6692 24.8093C20.6692 25.5803 20.3622 26.3205 19.817 26.8657C19.2717 27.411 18.5322 27.7173 17.7612 27.7173C16.9903 27.7173 16.251 27.4097 15.7058 26.8646C15.1607 26.3195 14.8545 25.5802 14.8545 24.8093M20.6692 24.8093C20.6692 24.0382 20.3622 23.2994 19.817 22.7541C19.2717 22.2089 18.5322 21.9026 17.7612 21.9026C16.9903 21.9026 16.251 22.2088 15.7058 22.7539C15.1607 23.2991 14.8545 24.0384 14.8545 24.8093M14.8545 24.8093H3.6665M28.3332 7.1906H24.1932M18.3785 7.1906H3.6665M18.3785 7.1906C18.3785 6.41971 18.6847 5.68038 19.2298 5.13528C19.775 4.59017 20.5143 4.28394 21.2852 4.28394C21.6669 4.28394 22.0449 4.35912 22.3975 4.50519C22.7502 4.65127 23.0706 4.86537 23.3405 5.13528C23.6104 5.40519 23.8245 5.72562 23.9706 6.07827C24.1167 6.43092 24.1918 6.80889 24.1918 7.1906C24.1918 7.57231 24.1167 7.95028 23.9706 8.30294C23.8245 8.65559 23.6104 8.97602 23.3405 9.24593C23.0706 9.51583 22.7502 9.72994 22.3975 9.87601C22.0449 10.0221 21.6669 10.0973 21.2852 10.0973C20.5143 10.0973 19.775 9.79103 19.2298 9.24593C18.6847 8.70082 18.3785 7.9615 18.3785 7.1906Z" stroke="black" stroke-width="1.5" stroke-miterlimit="10" stroke-linecap="round"/>
</svg>
