<svg width="32" height="32" viewBox="0 0 32 32" fill="none" xmlns="http://www.w3.org/2000/svg">
<path fill-rule="evenodd" clip-rule="evenodd" d="M13.6733 1.84937L15.3533 2.85737C17.4841 4.11693 19.121 6.06621 19.9933 8.3827C20.2893 7.71603 20.6413 7.06936 20.9679 6.41603L22.2759 7.72403C25.2119 10.66 27.9999 15.06 27.9999 19.3334C27.9999 25.064 24.4666 28.6974 18.8133 29.3254L16.9599 29.5307L17.3653 27.7107C17.6813 26.2867 17.7386 25.356 17.6719 24.704C17.5919 23.884 17.2026 23.24 16.7173 22.6C16.2533 21.9867 15.7933 21.372 15.4253 20.6934C13.9119 21.8894 13.3253 22.9694 13.1373 23.8587C12.8973 24.9974 13.2373 26.1614 13.8586 27.404L14.9546 29.596L12.5199 29.3254C9.08526 28.944 5.70126 26.6494 4.36793 23.3014C2.97459 19.7987 3.95993 15.56 8.46126 11.6587C11.4479 9.0707 13.0293 5.7147 13.6733 1.84937ZM15.4493 6.24936C14.4333 9.1027 12.4826 11.7027 10.2066 13.6747C6.32526 17.0387 5.97726 20.1334 6.84659 22.3147C7.49326 23.9414 8.88926 25.2787 10.5439 26.0374C10.3506 25.1389 10.3452 24.2101 10.5279 23.3094C10.9626 21.248 12.4453 19.316 15.2933 17.536L16.7293 16.6387L17.2653 18.2454C17.7346 19.6534 18.7079 20.6494 19.4693 21.8854C20.3066 23.2454 20.4666 24.8054 20.2959 26.3627C23.7893 25.4894 25.3333 22.84 25.3333 19.3334C25.3333 16.3707 23.5466 13.464 21.7733 11.192C21.0426 12.8294 19.5026 13.4054 17.9999 14.1574V12C17.9999 10.1747 17.2573 7.94937 15.4493 6.2507V6.24936Z" fill="black"/>
</svg>
