<svg width="32" height="32" viewBox="0 0 32 32" fill="none" xmlns="http://www.w3.org/2000/svg">
<path fill-rule="evenodd" clip-rule="evenodd" d="M17.6427 1.81325C18.4853 0.802583 20.1267 1.49325 19.9933 2.80258L19.052 11.9999H26.6667C26.92 12 27.1681 12.0723 27.3819 12.2083C27.5956 12.3443 27.7662 12.5384 27.8736 12.7678C27.9811 12.9972 28.0209 13.2525 27.9885 13.5038C27.9561 13.7551 27.8528 13.9919 27.6907 14.1866L14.3573 30.1866C13.5147 31.1972 11.8733 30.5066 12.0067 29.1973L12.948 19.9999H5.33332C5.07997 19.9998 4.83189 19.9275 4.61813 19.7916C4.40437 19.6556 4.23378 19.4615 4.12633 19.232C4.01889 19.0026 3.97903 18.7473 4.01144 18.496C4.04385 18.2448 4.14718 18.0079 4.30932 17.8133L17.6427 1.81325ZM8.17999 17.3333H15.3107C15.3852 17.3333 15.4589 17.3489 15.527 17.3791C15.5952 17.4094 15.6562 17.4535 15.7062 17.5088C15.7562 17.5641 15.7941 17.6292 15.8173 17.7C15.8406 17.7709 15.8488 17.8458 15.8413 17.9199L15.104 25.1266L23.82 14.6666H16.6893C16.6148 14.6666 16.5411 14.651 16.473 14.6207C16.4048 14.5905 16.3438 14.5463 16.2938 14.491C16.2438 14.4357 16.2059 14.3706 16.1827 14.2998C16.1594 14.229 16.1512 14.1541 16.1587 14.0799L16.896 6.87458L8.17999 17.3333Z" fill="black"/>
</svg>
