<svg width="32" height="32" viewBox="0 0 32 32" fill="none" xmlns="http://www.w3.org/2000/svg">
<path d="M13.3332 18.6667H18.6665M18.6665 13.3333H18.6798M23.9998 13.3333H24.0132M13.3332 13.3333H13.3465M7.99984 13.3333H8.01317M7.99984 18.6667H8.01317M23.9998 18.6667H24.0132M29.3332 21.3333V10.6667C29.3332 9.95942 29.0522 9.28115 28.5521 8.78105C28.052 8.28095 27.3737 8 26.6665 8H5.33317C4.62593 8 3.94765 8.28095 3.44755 8.78105C2.94746 9.28115 2.6665 9.95942 2.6665 10.6667V21.3333C2.6665 22.0406 2.94746 22.7189 3.44755 23.219C3.94765 23.719 4.62593 24 5.33317 24H26.6665C27.3737 24 28.052 23.719 28.5521 23.219C29.0522 22.7189 29.3332 22.0406 29.3332 21.3333Z" stroke="black" stroke-width="2" stroke-linecap="round" stroke-linejoin="round"/>
</svg>
