<svg width="32" height="32" viewBox="0 0 32 32" fill="none" xmlns="http://www.w3.org/2000/svg">
<path fill-rule="evenodd" clip-rule="evenodd" d="M11.2932 3.29343C11.4807 3.10616 11.7348 3.00098 11.9998 3.00098C12.2648 3.00098 12.519 3.10616 12.7065 3.29343L15.3732 5.9601C15.5128 6.09995 15.6079 6.27805 15.6465 6.47192C15.685 6.66578 15.6652 6.86671 15.5896 7.04933C15.5139 7.23195 15.3859 7.38806 15.2216 7.49795C15.0573 7.60785 14.8642 7.66659 14.6665 7.66676H11.9998C9.7897 7.66676 7.67008 8.54474 6.10728 10.1075C4.54448 11.6703 3.6665 13.79 3.6665 16.0001C3.6665 18.2102 4.54448 20.3299 6.10728 21.8927C7.67008 23.4555 9.7897 24.3334 11.9998 24.3334H12.6665C12.9317 24.3334 13.1861 24.4388 13.3736 24.6263C13.5611 24.8139 13.6665 25.0682 13.6665 25.3334C13.6665 25.5986 13.5611 25.853 13.3736 26.0405C13.1861 26.2281 12.9317 26.3334 12.6665 26.3334H11.9998C9.25927 26.3334 6.63094 25.2447 4.69307 23.3069C2.75519 21.369 1.6665 18.7407 1.6665 16.0001C1.6665 13.2595 2.75519 10.6312 4.69307 8.69333C6.63094 6.75545 9.25927 5.66676 11.9998 5.66676H12.2532L11.2932 4.70676C11.1059 4.51926 11.0007 4.2651 11.0007 4.0001C11.0007 3.7351 11.1059 3.48093 11.2932 3.29343ZM18.3332 6.66676C18.3332 6.40155 18.4385 6.14719 18.6261 5.95966C18.8136 5.77212 19.068 5.66676 19.3332 5.66676H19.9998C22.7404 5.66676 25.3687 6.75545 27.3066 8.69333C29.2445 10.6312 30.3332 13.2595 30.3332 16.0001C30.3332 18.7407 29.2445 21.369 27.3066 23.3069C25.3687 25.2447 22.7404 26.3334 19.9998 26.3334H19.7465L20.7065 27.2934C20.8048 27.385 20.8836 27.4954 20.9382 27.618C20.9929 27.7407 21.0223 27.8731 21.0246 28.0074C21.027 28.1417 21.0023 28.275 20.952 28.3996C20.9017 28.5241 20.8268 28.6372 20.7319 28.7321C20.6369 28.8271 20.5238 28.902 20.3993 28.9523C20.2748 29.0026 20.1414 29.0273 20.0071 29.0249C19.8729 29.0225 19.7405 28.9931 19.6178 28.9385C19.4951 28.8838 19.3847 28.805 19.2932 28.7068L16.6265 26.0401C16.4868 25.9002 16.3917 25.7221 16.3532 25.5283C16.3147 25.3344 16.3345 25.1335 16.4101 24.9509C16.4857 24.7682 16.6138 24.6121 16.7781 24.5022C16.9423 24.3923 17.1355 24.3336 17.3332 24.3334H19.9998C22.21 24.3334 24.3296 23.4555 25.8924 21.8927C27.4552 20.3299 28.3332 18.2102 28.3332 16.0001C28.3332 13.79 27.4552 11.6703 25.8924 10.1075C24.3296 8.54474 22.21 7.66676 19.9998 7.66676H19.3332C19.068 7.66676 18.8136 7.56141 18.6261 7.37387C18.4385 7.18633 18.3332 6.93198 18.3332 6.66676Z" fill="black"/>
</svg>
