<svg width="32" height="32" viewBox="0 0 32 32" fill="none" xmlns="http://www.w3.org/2000/svg">
<path d="M10.8572 19.388C10.8573 20.357 10.0718 21.1427 9.10275 21.1427C8.17712 21.1427 7.42676 20.3923 7.42676 19.4667V14.2881C7.42676 13.3411 8.1945 12.5733 9.14156 12.5733C10.0885 12.5733 10.8562 13.3409 10.8564 14.2879L10.8572 19.388ZM17.7148 19.428C17.7148 20.375 16.9471 21.1427 16.0001 21.1427C15.0531 21.1427 14.2854 20.375 14.2854 19.428V5.71467C14.2854 4.76769 15.0531 4 16.0001 4C16.9471 4 17.7148 4.76768 17.7148 5.71467V19.428ZM24.5708 19.4287C24.5708 20.3753 23.8034 21.1427 22.8568 21.1427C21.9101 21.1427 21.1428 20.3753 21.1428 19.4287V10.8567C21.1428 9.91005 21.9101 9.14267 22.8568 9.14267C23.8034 9.14267 24.5708 9.91005 24.5708 10.8567V19.4287Z" fill="black"/>
<path fill-rule="evenodd" clip-rule="evenodd" d="M28 27.6186H4V24.9519H28V27.6186Z" fill="black"/>
</svg>
