<svg width="32" height="32" viewBox="0 0 32 32" fill="none" xmlns="http://www.w3.org/2000/svg">
<path d="M15.9998 29.3334C23.3638 29.3334 29.3332 23.3641 29.3332 16.0001C29.3332 8.63608 23.3638 2.66675 15.9998 2.66675C8.63584 2.66675 2.6665 8.63608 2.6665 16.0001C2.6665 23.3641 8.63584 29.3334 15.9998 29.3334Z" stroke="black" stroke-width="2" stroke-miterlimit="10" stroke-linejoin="round"/>
<path d="M16 24C18.1217 24 20.1566 23.1571 21.6569 21.6569C23.1571 20.1566 24 18.1217 24 16C24 13.8783 23.1571 11.8434 21.6569 10.3431C20.1566 8.84286 18.1217 8 16 8C13.8783 8 11.8434 8.84286 10.3431 10.3431C8.84286 11.8434 8 13.8783 8 16C8 18.1217 8.84286 20.1566 10.3431 21.6569C11.8434 23.1571 13.8783 24 16 24Z" stroke="black" stroke-width="2" stroke-miterlimit="10" stroke-linejoin="round"/>
<path d="M15.9997 18.6668C16.7069 18.6668 17.3852 18.3859 17.8853 17.8858C18.3854 17.3857 18.6663 16.7074 18.6663 16.0002C18.6663 15.2929 18.3854 14.6146 17.8853 14.1145C17.3852 13.6144 16.7069 13.3335 15.9997 13.3335C15.2924 13.3335 14.6142 13.6144 14.1141 14.1145C13.614 14.6146 13.333 15.2929 13.333 16.0002C13.333 16.7074 13.614 17.3857 14.1141 17.8858C14.6142 18.3859 15.2924 18.6668 15.9997 18.6668Z" stroke="black" stroke-width="2" stroke-miterlimit="10" stroke-linejoin="round"/>
</svg>
